<svg width="34" height="33" viewBox="0 0 34 33" fill="none" xmlns="http://www.w3.org/2000/svg">
<path d="M0 25.5C0 21.3579 3.35786 18 7.5 18H15V25.5C15 29.6421 11.6421 33 7.5 33C3.35786 33 0 29.6421 0 25.5Z" fill="white"/>
<path d="M0 7.5C0 3.35786 3.35786 0 7.5 0C11.6421 0 15 3.35786 15 7.5V15H7.5C3.35786 15 0 11.6421 0 7.5Z" fill="white"/>
<path d="M19 18H26.5C30.6421 18 34 21.3579 34 25.5C34 29.6421 30.6421 33 26.5 33C22.3579 33 19 29.6421 19 25.5V18Z" fill="white"/>
<path d="M19 7.5C19 3.35786 22.3579 0 26.5 0C30.6421 0 34 3.35786 34 7.5C34 11.6421 30.6421 15 26.5 15H19V7.5Z" fill="white"/>
</svg>
