<svg width="40" height="40" viewBox="0 0 40 40" fill="none" xmlns="http://www.w3.org/2000/svg">
<g clip-path="url(#clip0_37_337)">
<path d="M31.507 2.5H21.9031C21.6046 2.49978 21.3181 2.61775 21.1062 2.82813L1.90625 22.0234C1.48594 22.4458 1.24999 23.0174 1.24999 23.6133C1.24999 24.2091 1.48594 24.7808 1.90625 25.2031L11.0469 34.3438C11.4694 34.7641 12.0411 35.0001 12.6371 35.0001C13.2331 35.0001 13.8048 34.7641 14.2273 34.3438L33.4219 15.1563C33.6322 14.9444 33.7502 14.6579 33.75 14.3594V4.75C33.7514 4.45472 33.6945 4.16206 33.5823 3.88889C33.4702 3.61571 33.3052 3.36741 33.0967 3.15829C32.8882 2.94916 32.6404 2.78333 32.3676 2.67036C32.0948 2.55738 31.8023 2.49948 31.507 2.5V2.5Z" stroke="white" stroke-width="3" stroke-linecap="round" stroke-linejoin="round"/>
<path d="M27.5 11.25C27.0055 11.25 26.5222 11.1034 26.1111 10.8287C25.7 10.554 25.3795 10.1635 25.1903 9.70671C25.0011 9.2499 24.9516 8.74723 25.048 8.26228C25.1445 7.77732 25.3826 7.33187 25.7322 6.98223C26.0819 6.6326 26.5273 6.3945 27.0123 6.29804C27.4972 6.20157 27.9999 6.25108 28.4567 6.4403C28.9135 6.62952 29.304 6.94995 29.5787 7.36108C29.8534 7.7722 30 8.25555 30 8.75C30 9.41304 29.7366 10.0489 29.2678 10.5178C28.7989 10.9866 28.163 11.25 27.5 11.25Z" fill="white"/>
<path d="M17.9688 37.5L38.4375 17.0312C38.5393 16.9286 38.6194 16.8066 38.6731 16.6723C38.7267 16.5381 38.7529 16.3945 38.75 16.25V6.25" stroke="white" stroke-width="3" stroke-linecap="round" stroke-linejoin="round"/>
</g>
<defs>
<clipPath id="clip0_37_337">
<rect width="40" height="40" fill="white"/>
</clipPath>
</defs>
</svg>
