<svg width="35" height="42" viewBox="0 0 35 42" fill="none" xmlns="http://www.w3.org/2000/svg">
<path d="M29.25 5.96C26.1337 2.77741 21.9071 0.989441 17.5 0.989441C13.0929 0.989441 8.8663 2.77741 5.75 5.96C2.63371 9.1426 0.882996 13.4591 0.882996 17.96C0.882996 22.4609 2.63371 26.7774 5.75 29.96L16.0704 40.52C16.2525 40.7075 16.4691 40.8562 16.7077 40.9578C16.9463 41.0593 17.2023 41.1116 17.4608 41.1116C17.7194 41.1116 17.9753 41.0593 18.214 40.9578C18.4526 40.8562 18.6692 40.7075 18.8513 40.52L29.25 29.86C32.3533 26.6906 34.0967 22.3921 34.0967 17.91C34.0967 13.4279 32.3533 9.12936 29.25 5.96V5.96ZM26.4496 27L17.5 36.18L8.55042 27C6.78233 25.1926 5.5786 22.8905 5.09141 20.3846C4.60421 17.8787 4.85542 15.2815 5.81327 12.9214C6.77112 10.5612 8.39261 8.5441 10.4728 7.12496C12.5529 5.70581 14.9984 4.94837 17.5 4.94837C20.0016 4.94837 22.4471 5.70581 24.5272 7.12496C26.6074 8.5441 28.2289 10.5612 29.1867 12.9214C30.1446 15.2815 30.3958 17.8787 29.9086 20.3846C29.4214 22.8905 28.2177 25.1926 26.4496 27V27ZM11.625 11.82C10.0441 13.4395 9.15632 15.6331 9.15632 17.92C9.15632 20.2069 10.0441 22.4005 11.625 24.02C12.7995 25.2216 14.2954 26.0422 15.9248 26.3788C17.5543 26.7155 19.2448 26.5532 20.7843 25.9123C22.3238 25.2715 23.6437 24.1806 24.5784 22.7765C25.5131 21.3724 26.021 19.7177 26.0383 18.02C26.0472 16.8864 25.8333 15.7625 25.4095 14.7148C24.9857 13.667 24.3605 12.7167 23.5708 11.92C22.7947 11.1092 21.8692 10.4631 20.8476 10.0189C19.826 9.57479 18.7285 9.34135 17.6183 9.33206C16.508 9.32277 15.4069 9.5378 14.3784 9.96478C13.3498 10.3918 12.4141 11.0223 11.625 11.82V11.82ZM20.8096 21.18C20.0675 21.9495 19.0867 22.4318 18.0349 22.5445C16.9831 22.6572 15.9256 22.3933 15.0433 21.7979C14.1609 21.2024 13.5085 20.3125 13.1976 19.2802C12.8866 18.2479 12.9364 17.1373 13.3385 16.1383C13.7405 15.1393 14.4699 14.314 15.4018 13.8035C16.3338 13.2929 17.4104 13.1288 18.4477 13.3392C19.485 13.5497 20.4185 14.1215 21.0887 14.9571C21.7588 15.7926 22.124 16.8399 22.1217 17.92C22.0932 19.1545 21.586 20.3271 20.7117 21.18H20.8096Z" fill="white"/>
</svg>
